# xmcd
#
# Track frame offsets:
#	150
#	28482
#	51101
#	70396
#	91443
#	116197
#	137781
#	156538
#	176780
#	203797
#	220887
#	241164
#	261788
#	279520
#	300320
#
# Disc length: 4244 seconds
#
# Revision: 1
# Processed by: cddbd v1.4PL0 Copyright (c) Steve Scherf et al.
# Submitted via: EasyCDDAExtractor 6.2.0.3
#
DISCID=e710920f
DTITLE=齐秦 - 旷世情歌全记录2
DYEAR=2000
DGENRE=Pop
TTITLE0=爱情宣言
TTITLE1=我拿什么爱你
TTITLE2=朦胧
TTITLE3=往事随风
TTITLE4=海和天空
TTITLE5=想念
TTITLE6=无情的雨无情的你
TTITLE7=烟囱
TTITLE8=让我让你崩溃
TTITLE9=月亮代表我的心
TTITLE10=水岸
TTITLE11=港都夜雨
TTITLE12=WINDFLOWERS
TTITLE13=寒雨
TTITLE14=回来
EXTD=
EXTT0=
EXTT1=
EXTT2=
EXTT3=
EXTT4=
EXTT5=
EXTT6=
EXTT7=
EXTT8=
EXTT9=
EXTT10=
EXTT11=
EXTT12=
EXTT13=
EXTT14=
PLAYORDER=
